<svg width="480" height="176" viewBox="0 0 480 176" fill="none" xmlns="http://www.w3.org/2000/svg">
<g clip-path="url(#clip0_527_278)">
<path d="M390.325 158.436H373.176V171.633H390.325V158.436Z" fill="white"/>
<path d="M390.325 105.645H373.176V118.842H390.325V105.645Z" fill="white"/>
<path d="M373.176 145.237H356.027V158.435H373.176V145.237Z" fill="white"/>
<path d="M373.176 118.842H356.027V132.039H373.176V118.842Z" fill="white"/>
<path d="M338.894 132.04V118.842V105.645H321.745V118.842V132.04V145.237V158.435V171.633H338.894V158.435V145.237H356.027V132.04H338.894Z" fill="white"/>
<path d="M307.897 117.076H278.833V139.451H307.897V117.076Z" fill="white"/>
<path d="M307.897 27.5781H278.833V49.9526H307.897V27.5781Z" fill="white"/>
<path d="M278.833 94.7012H249.769V117.076H278.833V94.7012Z" fill="white"/>
<path d="M278.833 49.9521H249.769V72.3266H278.833V49.9521Z" fill="white"/>
<path d="M220.721 72.3271V49.9526V27.5781H191.657V49.9526V72.3271V94.7016V117.076V139.435H220.721V117.076V94.7016H249.769V72.3271H220.721Z" fill="white"/>
<path d="M109.26 11.3848C103.208 10.5806 98.5557 5.85028 98.5557 0.142338C98.5557 0.0950351 98.5557 0.0477317 98.5557 0.000428351H88.2443C87.1754 0.000428351 86.3109 0.788818 86.3109 1.75065V9.57147C86.3109 10.691 85.1792 11.4951 83.9845 11.2744C78.2472 10.2337 73.9403 5.6453 73.9403 0.126571C73.9403 0.0792673 73.9403 0.0319639 73.9403 -0.0153394H63.6289C62.56 -0.0153394 61.6955 0.77305 61.6955 1.73488V9.55571C61.6955 10.6752 60.5638 11.4794 59.3692 11.2586C53.6319 10.218 49.325 5.62953 49.325 0.110803C49.325 0.0634995 49.325 0.0161961 49.325 -0.0311072H39.0135C37.9447 -0.0311072 37.0801 0.757282 37.0801 1.71912V9.53994C37.0801 10.6595 35.9484 11.4636 34.7538 11.2429C29.0165 10.2022 24.7096 5.61376 24.7096 0.0950351C24.7096 0.0477317 24.7096 0.000428351 24.7096 -0.046875H14.3981C13.3293 -0.046875 12.4805 0.741514 12.4805 1.70335V20.5301C12.4805 21.4919 13.345 22.2803 14.3981 22.2803H96.5123C97.5812 22.2803 98.4457 23.0687 98.4457 24.0305V31.8671C98.4457 32.829 99.3102 33.6173 100.363 33.6173H108.993C110.062 33.6173 110.911 32.829 110.911 31.8671V13.0719C110.911 12.1889 110.188 11.4794 109.229 11.3375L109.26 11.3848Z" fill="white"/>
<path d="M109.26 45.1907C103.209 44.3866 98.5559 39.6562 98.5559 33.9483C98.5559 33.901 98.5559 33.8537 98.5559 33.8064H88.2444C87.1756 33.8064 86.311 34.5948 86.311 35.5566V45.3169C79.4577 45.238 73.9248 40.1766 73.9248 33.9483C73.9248 33.901 73.9248 33.8537 73.9248 33.8064H63.6133C62.5445 33.8064 61.6799 34.5948 61.6799 35.5566V43.3774C61.6799 44.4969 60.5482 45.3011 59.3536 45.0803C53.6163 44.0397 49.3094 39.4512 49.3094 33.9325C49.3094 33.8852 49.3094 33.8379 49.3094 33.7906H38.9979C37.9291 33.7906 37.0645 34.579 37.0645 35.5408V43.5351C37.0645 44.6546 35.9328 45.4588 34.7382 45.238C29.0009 44.1973 24.694 39.6089 24.694 34.0902C24.694 34.0429 24.694 33.9956 24.694 33.9483H14.3826C13.3137 33.9483 12.4649 33.1599 12.4649 32.1981V24.0461C12.4649 23.0843 11.6004 22.2959 10.5315 22.2959H0V67.2656H10.5629C11.6318 67.2656 12.4963 66.4772 12.4963 65.5154V58.0099C12.4963 57.0481 13.3608 56.2597 14.414 56.2597H37.096V56.102H96.5282C97.597 56.102 98.4615 56.8904 98.4615 57.8522V65.2C98.4615 66.1619 97.597 66.9503 96.5282 66.9503H88.2444C87.1756 66.9503 86.311 67.7386 86.311 68.7005V76.5213C86.311 77.6408 85.1793 78.445 83.9847 78.2242C78.2474 77.1836 73.9405 72.5951 73.9405 67.0764C73.9405 67.0291 73.9405 66.9818 73.9405 66.9345H63.629C62.5602 66.9345 61.6957 67.7229 61.6957 68.6847V76.5055C61.6957 77.6251 60.5639 78.4292 59.3693 78.2085C53.632 77.1678 49.3251 72.5794 49.3251 67.0606C49.3251 67.0133 49.3251 66.966 49.3251 66.9187H39.0137C37.9448 66.9187 37.0803 67.7071 37.0803 68.6689V76.4898C37.0803 77.6093 35.9485 78.4134 34.7539 78.1927C29.0166 77.152 24.7097 72.5636 24.7097 67.0449C24.7097 66.9976 24.7097 66.9503 24.7097 66.903H14.3983C13.3294 66.903 12.4806 67.6913 12.4806 68.6532V87.4799C12.4806 88.4417 13.3451 89.2301 14.3983 89.2301H96.4653C97.4398 89.2301 98.2258 88.5679 98.3672 87.7007C99.2632 82.2135 104.466 78.0035 110.769 78.0035C110.816 78.0035 110.864 78.0035 110.926 78.0035V46.8621C110.926 45.9791 110.203 45.2696 109.245 45.1276L109.26 45.1907Z" fill="white"/>
<path d="M185.574 116.067C166.287 119.914 161.635 108.656 177.982 97.6973C161.635 108.656 153.037 100.047 163.961 83.6324C153.037 100.031 141.814 95.3794 145.649 76.0166C141.814 95.3637 129.663 95.3637 125.828 76.0166C129.663 95.3637 118.44 100.031 107.515 83.6324C118.44 100.031 109.858 108.656 93.4944 97.6973C109.842 108.656 105.205 119.914 85.9023 116.067C105.189 119.914 105.189 132.103 85.9023 135.95C105.189 132.103 109.842 143.361 93.4944 154.319C109.842 143.361 118.44 151.97 107.515 168.384C118.44 151.986 129.663 156.637 125.828 176C129.663 156.653 141.814 156.653 145.649 176C141.814 156.653 153.037 151.986 163.961 168.384C153.037 151.986 161.619 143.361 177.982 154.319C161.635 143.361 166.272 132.103 185.574 135.95C166.287 132.103 166.287 119.914 185.574 116.067ZM165.753 146.12C144.454 131.835 141.562 134.736 155.787 156.117C141.546 134.752 137.774 136.313 142.772 161.525C137.774 136.313 133.687 136.313 128.688 161.525C133.687 136.313 129.915 134.752 115.673 156.117C129.915 134.752 127.022 131.85 105.708 146.12C127.007 131.835 125.45 128.05 100.316 133.064C125.45 128.05 125.45 123.951 100.316 118.937C125.45 123.951 127.007 120.166 105.708 105.881C127.007 120.166 129.899 117.265 115.673 95.884C129.915 117.249 133.687 115.688 128.688 90.4757C133.687 115.688 137.774 115.688 142.772 90.4757C137.774 115.688 141.546 117.249 155.787 95.884C141.546 117.249 144.439 120.151 165.753 105.881C144.454 120.166 146.01 123.951 171.145 118.937C146.01 123.951 146.01 128.05 171.145 133.064C146.01 128.05 144.454 131.835 165.753 146.12Z" fill="white"/>
<path d="M464.91 56.7638C456.595 56.7638 449.867 63.4967 449.82 71.822V71.7905C449.82 71.7905 449.82 71.8378 449.82 71.9324C449.82 72.232 449.82 72.5158 449.852 72.8154C449.789 75.7167 448.28 84.1524 433.457 89.6712C425.551 92.0206 417.786 91.989 409.864 89.6081L410.461 89.7658C395.198 84.184 393.736 75.5275 393.673 72.705C393.673 72.4528 393.689 72.2162 393.689 71.964C393.689 71.8536 393.705 71.7905 393.705 71.7905V71.822C393.642 63.4967 386.899 56.7638 378.599 56.7638C370.3 56.7638 363.509 63.544 363.509 71.9009C363.509 80.2578 370.268 87.038 378.599 87.038C381.9 87.038 384.949 85.9815 387.433 84.1682C387.433 84.1682 387.433 84.1682 387.464 84.1524C387.543 84.0894 387.622 84.0421 387.7 83.979C388.863 83.2221 394.176 80.9989 407.223 90.7276C414.658 96.5302 419.122 102.175 420.882 107.993C421.668 111.415 422.171 117.58 416.811 120.387C410.901 122.437 406.673 128.066 406.673 134.688C406.673 143.045 413.432 149.825 421.763 149.825C430.093 149.825 436.852 143.045 436.852 134.688C436.852 128.318 432.938 122.878 427.39 120.639C419.483 117.06 423.083 106.732 423.492 105.66C425.708 100.535 430.046 95.521 436.727 90.3807L434.935 91.8471C448.421 81.33 454.19 83.0487 455.746 83.9159C458.293 85.8554 461.452 87.0222 464.895 87.0222C473.225 87.0222 479.984 80.242 479.984 71.8851C479.984 63.5282 473.225 56.748 464.895 56.748L464.91 56.7638Z" fill="white"/>
</g>
<defs>
<clipPath id="clip0_527_278">
<rect width="480" height="176" fill="white"/>
</clipPath>
</defs>
</svg>
